<svg xmlns="http://www.w3.org/2000/svg" viewBox="0 0 600 460" font-family="ui-monospace,monospace">
  <rect width="600" height="460" fill="#ffffff"/>
  <rect x="120" y="70" width="360" height="300" fill="#8d8a83" opacity="0.35" transform="skewX(-2)"/>
  <g fill="none" stroke="#141414" stroke-width="7" stroke-linecap="round">
    <circle cx="300" cy="170" r="72"/>
    <path d="M175 380 C 190 290, 250 265, 300 265 C 350 265, 410 290, 425 380"/>
    <path d="M258 150 q 12 -14 26 0 M318 150 q 12 -14 26 0"/>
    <path d="M278 200 q 22 16 44 0"/>
  </g>
  <g stroke="#141414" stroke-width="2" opacity="0.35">
    <line x1="36" y1="430" x2="96" y2="370"/><line x1="52" y1="430" x2="112" y2="370"/>
    <line x1="68" y1="430" x2="128" y2="370"/><line x1="84" y1="430" x2="144" y2="370"/>
  </g>
  <text x="300" y="432" text-anchor="middle" font-size="17" letter-spacing="4" fill="#141414">TU FOTO AQUI</text>
</svg>
